<?xml version="1.0" encoding="UTF-8" standalone="no"?>
<svg
   xmlns:dc="http://purl.org/dc/elements/1.1/"
   xmlns:cc="http://creativecommons.org/ns#"
   xmlns:rdf="http://www.w3.org/1999/02/22-rdf-syntax-ns#"
   xmlns:svg="http://www.w3.org/2000/svg"
   xmlns="http://www.w3.org/2000/svg"
   xmlns:sodipodi="http://sodipodi.sourceforge.net/DTD/sodipodi-0.dtd"
   xmlns:inkscape="http://www.inkscape.org/namespaces/inkscape"
   width="934.59906"
   height="479.56815"
   version="1.1"
   id="svg13"
   sodipodi:docname="logo-text-v.svg"
   inkscape:version="0.92.4 (unknown)">
  <metadata
     id="metadata19">
    <rdf:RDF>
      <cc:Work
         rdf:about="">
        <dc:format>image/svg+xml</dc:format>
        <dc:type
           rdf:resource="http://purl.org/dc/dcmitype/StillImage" />
        <dc:title>two peas in a pod</dc:title>
      </cc:Work>
    </rdf:RDF>
  </metadata>
  <defs
     id="defs17" />
  <sodipodi:namedview
     pagecolor="#ffffff"
     bordercolor="#666666"
     borderopacity="1"
     objecttolerance="10"
     gridtolerance="10"
     guidetolerance="10"
     inkscape:pageopacity="0"
     inkscape:pageshadow="2"
     inkscape:window-width="1920"
     inkscape:window-height="1018"
     id="namedview15"
     showgrid="false"
     fit-margin-top="0"
     fit-margin-left="0"
     fit-margin-right="0"
     fit-margin-bottom="0"
     inkscape:zoom="0.49166667"
     inkscape:cx="734.61679"
     inkscape:cy="140.92664"
     inkscape:window-x="0"
     inkscape:window-y="34"
     inkscape:window-maximized="1"
     inkscape:current-layer="g11" />
  <!-- Created with SVG-edit - http://svg-edit.googlecode.com/ -->
  <title
     id="title2">two peas in a pod</title>
  <g
     id="g11"
     transform="translate(126.89725,-78.707613)">
    <title
       id="title4">Layer 1</title>
    <ellipse
       rx="24.666668"
       id="svg_21"
       cy="198"
       cx="204.00002"
       ry="0"
       style="fill:#ffffff;stroke:#191919" />
    <g
       id="g915">
      <path
         sodipodi:nodetypes="cacccc"
         inkscape:connector-curvature="0"
         id="path828"
         d="m 134.37284,313.54237 c 0,0 140.3574,-97.33526 214.9492,-138.62712 63.467,-35.13348 197.0508,-92.372876 197.0508,-92.372876 l -27.7288,81.186436 -272.0339,149.49153 z"
         style="fill:#2ca02c;fill-opacity:1;stroke:#217821;stroke-width:4;stroke-linecap:butt;stroke-linejoin:miter;stroke-opacity:1" />
      <ellipse
         style="fill:#87de87;stroke:#3f7f00;stroke-width:4"
         cx="297.87292"
         cy="250.54237"
         rx="88"
         ry="88.5"
         id="svg_6" />
      <ellipse
         style="fill:#87de87;stroke:#3f7f00;stroke-width:4"
         id="svg_1"
         cx="441.87292"
         cy="180.04236"
         rx="88"
         ry="88.5" />
      <path
         sodipodi:nodetypes="caacascaaac"
         style="fill:#37c837;stroke:#217821;stroke-width:4"
         inkscape:connector-curvature="0"
         d="m 548.66104,83.940674 c 0,0 3.3982,23.177476 1.7118,34.601696 -6.6663,45.16271 -16.1392,94.4682 -46,129 -24.6761,28.53613 -64.8391,46.10495 -100,53 -26.537,22.92636 -57.4109,36.00815 -89.9999,40.33334 -49.1822,6.52743 -98.8822,-8.83114 -147.0001,-23.33334 -10.6091,-3.19748 -21.821,-3.65697 -33,-4 0,0 21.7993,-10.46757 33,-15 66.2632,-26.81365 138.6699,-38.84786 202,-72 55.237,-28.91547 106.6118,-66.25504 152,-109 10.504,-9.89227 27.2882,-33.601696 27.2882,-33.601696 z"
         id="svg_13" />
    </g>
    <g
       id="g909"
       transform="matrix(0.74752077,0,0,0.74752077,-580.04458,310.01942)">
      <path
         d="m 714.07143,239.00389 q 0,18.90405 -19.02215,30.24646 -16.18662,9.68834 -36.39029,9.68834 -15.1232,0 -28.94677,-5.78938 -15.95027,-6.73456 -22.2122,-18.6677 -1.2997,-2.48115 -1.2997,-4.60786 0,-3.5445 2.8356,-6.14383 2.8356,-2.59933 6.38011,-2.59933 4.01713,0 7.44346,4.60786 11.69686,15.47772 35.7995,15.47772 23.86635,0 34.02724,-13.11467 3.66268,-4.72603 3.66268,-9.09761 0,-7.20711 -8.27053,-13.35094 -6.61639,-4.72603 -15.1232,-6.85274 -7.08901,-1.89035 -16.06845,-1.89035 -15.24137,0 -27.29268,-7.67981 -13.94167,-8.86126 -13.94167,-23.39373 0,-14.53247 14.29612,-23.39373 12.28766,-7.56156 27.88348,-7.56156 9.68827,0 19.25843,3.42633 10.98797,3.89895 16.06845,10.63351 2.36298,3.07188 2.36298,5.78938 0,3.54451 -2.83561,6.26194 -2.71743,2.71743 -6.38011,2.71743 -1.5359,0 -9.80644,-5.55304 -8.15236,-5.55303 -18.6677,-5.55303 -16.06844,0 -22.56672,8.74309 -1.89036,2.48115 -1.89036,4.48968 0,8.50681 14.76875,12.16949 4.9623,1.18153 11.81504,1.18153 19.84922,0 35.68132,9.80643 18.43142,11.46059 18.43142,30.01012 z"
         style="font-style:normal;font-variant:normal;font-weight:normal;font-stretch:normal;font-size:40px;line-height:1.25;font-family:Monofur;-inkscape-font-specification:Monofur;letter-spacing:0px;word-spacing:0px;fill:#333333;fill-opacity:1;stroke:none;stroke-width:7.08900928"
         id="path853"
         inkscape:connector-curvature="0" />
      <path
         d="m 858.0965,222.81734 q 0,23.27556 -16.4229,39.69846 -16.42289,16.42289 -39.69845,16.42289 -23.27556,0 -39.69845,-16.42289 -16.4229,-16.4229 -16.4229,-39.69846 v -59.07505 q 0,-8.86126 8.86126,-8.86126 8.86127,0 8.86127,8.86126 v 59.07505 q 0,15.8321 11.22431,27.17452 11.34241,11.22431 27.17451,11.22431 15.8321,0 27.05641,-11.22431 11.34242,-11.34242 11.34242,-27.17452 v -59.07505 q 0,-8.86126 8.86126,-8.86126 8.86126,0 8.86126,8.86126 z"
         style="font-style:normal;font-variant:normal;font-weight:normal;font-stretch:normal;font-size:40px;line-height:1.25;font-family:Monofur;-inkscape-font-specification:Monofur;letter-spacing:0px;word-spacing:0px;fill:#333333;fill-opacity:1;stroke:none;stroke-width:7.08900928"
         id="path855"
         inkscape:connector-curvature="0" />
      <path
         d="m 1005.7842,163.74229 q 0,7.20711 -7.67977,8.62491 -1.89042,0.35445 -13.11466,0.23607 10.16089,11.57869 10.16089,26.58378 0,21.26703 -19.02215,34.3817 29.65569,15.47764 29.65569,45.36966 0,23.39373 -19.73108,38.87138 -18.19515,14.29619 -42.29778,14.29619 -24.10263,0 -42.29778,-14.29619 -19.73105,-15.47765 -19.73105,-38.87138 0,-8.86126 8.86126,-8.86126 8.86126,0 8.86126,8.86126 0,15.95027 14.65064,26.22933 13.11467,9.21571 29.65567,9.21571 16.541,0 29.65566,-9.21571 14.65065,-10.27906 14.65065,-26.22933 0,-15.95027 -14.65065,-26.22934 -13.11466,-9.21571 -29.65566,-9.21571 -19.9674,0 -35.0906,-11.93321 -16.30472,-12.87832 -16.30472,-32.3731 0,-19.49477 16.30472,-32.37316 15.1232,-11.93315 35.0906,-11.93315 h 53.16757 q 8.86129,0 8.86129,8.86126 z m -28.35607,35.44505 q 0,-11.93322 -11.22424,-19.73113 -9.92461,-6.85266 -22.44855,-6.85266 -12.52394,0 -22.44855,6.85266 -11.22425,7.79791 -11.22425,19.73113 0,11.93314 11.22425,19.73105 9.92461,6.85273 22.44855,6.85273 12.52394,0 22.44855,-6.85273 11.22424,-7.79791 11.22424,-19.73105 z"
         style="font-style:normal;font-variant:normal;font-weight:normal;font-stretch:normal;font-size:40px;line-height:1.25;font-family:Monofur;-inkscape-font-specification:Monofur;letter-spacing:0px;word-spacing:0px;fill:#333333;fill-opacity:1;stroke:none;stroke-width:7.08900928"
         id="path857"
         inkscape:connector-curvature="0" />
      <path
         d="m 1141.6569,270.07743 q 0,8.86126 -8.8613,8.86126 -9.0976,0 -8.8612,-12.52394 -17.4863,12.52394 -41.3527,12.52394 -21.8577,0 -39.1076,-10.98796 -19.9674,-12.76022 -19.9674,-33.31835 0,-20.55812 19.9674,-33.31834 17.3681,-10.98797 39.1076,-10.98797 23.8664,0 41.3527,12.52387 v -3.6626 q 0,-5.19866 -3.6627,-10.51542 -10.8698,-16.06837 -37.69,-16.06837 -15.3594,0 -30.3645,8.74309 -3.0719,1.77225 -5.3168,1.77225 -3.5445,0 -6.2619,-2.71743 -2.5993,-2.8356 -2.5993,-6.49828 0,-8.74309 18.5496,-14.53247 14.4143,-4.48968 25.9929,-4.48968 21.7397,0 39.1078,10.98796 19.9674,12.76022 19.9674,33.31835 z m -17.7225,-35.44505 q 0,-8.38871 -8.0343,-15.47772 -6.7346,-5.90748 -15.9503,-8.62491 -8.0342,-2.48115 -17.3681,-2.48115 -27.4107,0 -38.1624,16.77727 -3.1901,4.96231 -3.1901,9.80651 0,4.84414 3.1901,9.80644 10.7517,16.77735 38.1624,16.77735 9.3339,0 17.3681,-2.48116 9.2157,-2.7175 15.9503,-8.62498 8.0343,-7.08901 8.0343,-15.47765 z"
         style="font-style:normal;font-variant:normal;font-weight:normal;font-stretch:normal;font-size:40px;line-height:1.25;font-family:Monofur;-inkscape-font-specification:Monofur;letter-spacing:0px;word-spacing:0px;fill:#333333;fill-opacity:1;stroke:none;stroke-width:7.08900928"
         id="path859"
         inkscape:connector-curvature="0" />
      <path
         d="m 1289.4627,183.47334 q 0,3.66268 -2.8356,6.38011 -2.7175,2.59933 -6.3801,2.59933 -3.3082,0 -6.6164,-3.42641 -16.3048,-16.42282 -34.4998,-16.42282 -18.3134,0 -31.3099,12.99649 -12.9965,12.9965 -12.9965,31.30982 v 53.16757 q 0,8.86126 -8.8612,8.86126 -8.8613,0 -8.8613,-8.86126 V 163.74229 q 0,-8.86126 8.8613,-8.86126 6.8526,0 8.5068,6.61638 0.4728,2.1267 0.3544,12.05132 18.1951,-18.6677 44.3064,-18.6677 13.4691,0 26.82,6.14376 14.0599,6.38011 21.3852,16.89552 2.1267,3.07188 2.1267,5.55303 z"
         style="font-style:normal;font-variant:normal;font-weight:normal;font-stretch:normal;font-size:40px;line-height:1.25;font-family:Monofur;-inkscape-font-specification:Monofur;letter-spacing:0px;word-spacing:0px;fill:#333333;fill-opacity:1;stroke:none;stroke-width:7.08900928"
         id="path861"
         inkscape:connector-curvature="0" />
      <path
         d="m 1422.9724,239.00389 q 0,18.90405 -19.0222,30.24646 -16.1866,9.68834 -36.3903,9.68834 -15.1232,0 -28.9467,-5.78938 -15.9503,-6.73456 -22.2122,-18.6677 -1.2997,-2.48115 -1.2997,-4.60786 0,-3.5445 2.8356,-6.14383 2.8356,-2.59933 6.3801,-2.59933 4.0171,0 7.4434,4.60786 11.6969,15.47772 35.7995,15.47772 23.8664,0 34.0273,-13.11467 3.6627,-4.72603 3.6627,-9.09761 0,-7.20711 -8.2706,-13.35094 -6.6164,-4.72603 -15.1232,-6.85274 -7.089,-1.89035 -16.0684,-1.89035 -15.2414,0 -27.2927,-7.67981 -13.9417,-8.86126 -13.9417,-23.39373 0,-14.53247 14.2961,-23.39373 12.2877,-7.56156 27.8835,-7.56156 9.6883,0 19.2585,3.42633 10.9879,3.89895 16.0684,10.63351 2.363,3.07188 2.363,5.78938 0,3.54451 -2.8356,6.26194 -2.7175,2.71743 -6.3801,2.71743 -1.5359,0 -9.8065,-5.55304 -8.1523,-5.55303 -18.6677,-5.55303 -16.0684,0 -22.5667,8.74309 -1.8904,2.48115 -1.8904,4.48968 0,8.50681 14.7688,12.16949 4.9623,1.18153 11.815,1.18153 19.8493,0 35.6813,9.80643 18.4315,11.46059 18.4315,30.01012 z"
         style="font-style:normal;font-variant:normal;font-weight:normal;font-stretch:normal;font-size:40px;line-height:1.25;font-family:Monofur;-inkscape-font-specification:Monofur;letter-spacing:0px;word-spacing:0px;fill:#37c837;fill-opacity:1;stroke:none;stroke-width:7.08900928"
         id="path863"
         inkscape:connector-curvature="0" />
      <path
         d="m 1566.9974,270.07743 q 0,8.86126 -8.8612,8.86126 -8.8613,0 -8.8613,-8.86126 V 208.0486 q 0,-14.65065 -10.3972,-25.04788 -10.3973,-10.39717 -25.0478,-10.39717 -14.6507,0 -25.0479,10.39717 -10.3972,10.39723 -10.3972,25.04788 v 62.02883 q 0,8.86126 -8.8612,8.86126 -8.8613,0 -8.8613,-8.86126 V 163.74229 q 0,-8.86126 8.8613,-8.86126 8.9793,0 8.8612,13.58722 15.1232,-13.58722 35.4451,-13.58722 21.9759,0 37.5717,15.59582 15.5958,15.59582 15.5958,37.57175 z"
         style="font-style:normal;font-variant:normal;font-weight:normal;font-stretch:normal;font-size:40px;line-height:1.25;font-family:Monofur;-inkscape-font-specification:Monofur;letter-spacing:0px;word-spacing:0px;fill:#37c837;fill-opacity:1;stroke:none;stroke-width:7.08900928"
         id="path865"
         inkscape:connector-curvature="0" />
      <path
         d="m 1708.7776,270.07743 q 0,8.86126 -8.8612,8.86126 -9.0976,0 -8.8613,-12.52394 -17.4862,12.52394 -41.3526,12.52394 -21.8578,0 -39.1077,-10.98796 -19.9674,-12.76022 -19.9674,-33.31835 0,-20.55812 19.9674,-33.31834 17.3681,-10.98797 39.1077,-10.98797 23.8664,0 41.3526,12.52387 v -3.6626 q 0,-5.19866 -3.6627,-10.51542 -10.8698,-16.06837 -37.6899,-16.06837 -15.3595,0 -30.3646,8.74309 -3.0718,1.77225 -5.3167,1.77225 -3.5445,0 -6.262,-2.71743 -2.5993,-2.8356 -2.5993,-6.49828 0,-8.74309 18.5496,-14.53247 14.4143,-4.48968 25.993,-4.48968 21.7397,0 39.1077,10.98796 19.9674,12.76022 19.9674,33.31835 z m -17.7225,-35.44505 q 0,-8.38871 -8.0343,-15.47772 -6.7345,-5.90748 -15.9502,-8.62491 -8.0342,-2.48115 -17.3681,-2.48115 -27.4108,0 -38.1625,16.77727 -3.19,4.96231 -3.19,9.80651 0,4.84414 3.19,9.80644 10.7517,16.77735 38.1625,16.77735 9.3339,0 17.3681,-2.48116 9.2157,-2.7175 15.9502,-8.62498 8.0343,-7.08901 8.0343,-15.47765 z"
         style="font-style:normal;font-variant:normal;font-weight:normal;font-stretch:normal;font-size:40px;line-height:1.25;font-family:Monofur;-inkscape-font-specification:Monofur;letter-spacing:0px;word-spacing:0px;fill:#37c837;fill-opacity:1;stroke:none;stroke-width:7.08900928"
         id="path867"
         inkscape:connector-curvature="0" />
      <path
         d="m 1856.4653,216.90986 q 0,24.57518 -15.5958,42.88851 -16.3047,19.14032 -40.5255,19.14032 -22.3304,0 -38.3988,-16.77734 V 323.245 q 0,8.86126 -8.8613,8.86126 -8.8612,0 -8.8612,-8.86126 V 163.74229 q 0,-8.86126 8.8612,-8.86126 6.4982,0 8.1524,5.6712 0.7089,2.48116 0.7089,11.10607 16.0684,-16.77727 38.3988,-16.77727 24.2208,0 40.5255,19.14032 15.5958,18.31325 15.5958,42.88851 z m -17.7225,0 q 0,-17.24997 -10.3973,-30.24646 -11.2242,-14.05985 -28.0015,-14.05985 -16.7773,0 -28.0016,14.05985 -10.3972,12.99649 -10.3972,30.24646 0,17.2499 10.3972,30.24639 11.2243,14.05992 28.0016,14.05992 16.7773,0 28.0015,-14.05992 10.3973,-12.99649 10.3973,-30.24639 z"
         style="font-style:normal;font-variant:normal;font-weight:normal;font-stretch:normal;font-size:40px;line-height:1.25;font-family:Monofur;-inkscape-font-specification:Monofur;letter-spacing:0px;word-spacing:0px;fill:#37c837;fill-opacity:1;stroke:none;stroke-width:7.08900928"
         id="path869"
         inkscape:connector-curvature="0" />
    </g>
  </g>
</svg>
